<svg id="Camada_1" data-name="Camada 1" xmlns="http://www.w3.org/2000/svg" viewBox="0 0 718.18 527.98"><path d="M647.85,376.38c7.82,1,15.63,2.19,23.47,3.1,18.1,2.11,36.19,4.27,54.31,6.11,16.29,1.66,32.6.57,48.88-.54a2.76,2.76,0,0,1,1.74.36c-25.54,4-51.11,1.4-76.68-.4,0,.43-.06.87-.08,1.31,1.62.07,3.25.11,4.87.23s3.29.42,4.94.47c16.81.55,33.62,1.11,50.43,1.52a55.07,55.07,0,0,0,9.5-.74c14.89-2.24,29.73.2,44.59.44,15.28.24,30.56,1.31,45.83,2.14,2.05.12,4,1.18,6.09,1.44,3,.37,6,.42,9.38.63l-2.68-1.74,3.25-1.06,0-.76a37.79,37.79,0,0,1-4.39,0c-2.1-.24-4.83,2.17-6.24-1.43-.12-.3-1.44-.15-2.2-.18q-25-1-50-2c-5.22-.19-10.45-.08-15.67-.33-1.21-.05-2.91-.69-3.43-1.61a4.85,4.85,0,0,1,0-4c.29-.55,2.81-.7,3.59-.09,2.66,2.09,5,1.7,7.63.1.79-.48,2-.22,3-.5,2.12-.63,5-.21,4.4-4.17-.31-2.16,2.23-3,4.58-1.84,3.18,1.59,5.54,1.09,7.89-1.4a5.1,5.1,0,0,1,2.37-.88c2.12-.56,4.09-.9,4-4-.05-2.85,2-4.08,4.35-2.47,2.88,2,5.07.52,6.9-.95,1.6-1.3,2.79-2.84,5.09-3.07.46,0,.93-1.78,1.09-2.79.43-2.72,1.77-3.68,4.15-2.79,1,.38,2.24,1.32,3,1a20.33,20.33,0,0,0,6.36-3.37c.93-.81,1.07-2.47,2.92-2.19a8.93,8.93,0,0,0,.52-2.16c.24-2.7,1.58-3.71,4-3,4.66,1.41,11.28-2.68,12.14-7.5.6-3.36,1.11-3.53,4.56-2.6a6.27,6.27,0,0,0,3.85-.44c1.74-.74,3.25-2,4.93-2.91a5,5,0,0,0,2.84-4.89c0-3.49,1.26-4.22,4.47-3.49a5.34,5.34,0,0,0,3.4-.46,45,45,0,0,0,4.71-3.26,3.75,3.75,0,0,0,1.91-4.09c-.5-3.51,1-4.57,4.43-4a4.84,4.84,0,0,0,3.39-.59c3.23-2.42,7.46-4.13,6.51-9.64-.33-1.92,1.58-2.57,3.54-2.31,4.32.57,10-4.27,10.29-8.61.2-3.62,1.22-4.44,4.75-3.67,2,.43,3.26.23,3.09-2.25a3.83,3.83,0,0,1,.6-1.71c1.44-2.94,2.91-5.87,4.34-8.81,1.5-3.09,3.45-5.67,7.29-5.53s5.45,3,6.85,6.08c1.15,2.52,2.41,5,3.53,7.52.33.74.08,1.87.56,2.39.64.69,1.9,1.53,2.6,1.32,4.14-1.21,5.43-.44,4.94,3.79a4.91,4.91,0,0,0,2.31,5.17,49.6,49.6,0,0,0,4.63,3.37,5.94,5.94,0,0,0,3.68.6c2.8-.52,4,.26,4.21,3.19.13,1.58-.17,3.7.72,4.61a41.57,41.57,0,0,0,7.27,5.5c.53.35,1.67,0,2.43-.23,3-1.07,4-.47,4.29,2.47.15,1.58-.11,3.77.8,4.59a54.27,54.27,0,0,0,8.45,5.85c.49.3,1.6-.4,2.42-.67,2.61-.86,4.63.45,4,3.08-.81,3.17.79,4.47,3,5.75a35.57,35.57,0,0,0,5,2.82,7.35,7.35,0,0,0,4.18.19c2.75-.73,4.24-.22,4.21,2.44,0,3.29,1.64,4.86,4.34,5.94,3,1.21,5.5,4.1,9.48,1.82,1.76-1,3.19,1.27,2.79,2.93-.54,2.27.63,3,2.16,3.74,2.62,1.3,5.2,2.7,7.91,3.79a5,5,0,0,0,3.14-.18c3.08-1,4.89.07,4.39,3.25-.32,2,.3,2.07,1.93,2.65,2.65.94,5,2.85,7.56,4a5.32,5.32,0,0,0,3.8-.17c3.51-1.52,4.81-.77,5,3.05a2.59,2.59,0,0,0,1.09,2,60.19,60.19,0,0,0,5.89,2.19c2.11.73,4,1.64,6.34-.19,2.13-1.65,4.84.1,4.41,2.86-.35,2.33,1,2.6,2.35,3.09,2.15.76,4.37,1.32,6.52,2.08,1.87.67,3.37,1,5.21-.6,2.58-2.18,5-1,5.12,2.38.05,1.72.49,2.32,2.06,2.35-1.63.48-3.27,1.38-4.88,1.35-5.21-.1-10.42-.86-15.62-.78-18.09.27-36.18.78-54.28,1.21-.63,0-1.54-.23-1.85.1-2.44,2.5-5.56,2-8.5,2-3.81,0-7.62-.36-11.44-.46-.51,0-1,.53-1.54.82.48.33.94.91,1.45.95,3.3.28,6.61.43,9.92.64,1.52.09,3.42.88,4.48.24,3-1.81,6.21-1.4,9.25-1.5,13.38-.42,26.77-.45,40.15-.67,9.82-.15,19.64-.61,29.45-.48,5.47.07,11.11-1.43,16.47,1,.06,0,.59-.56.53-.73-.74-2.11.57-1.63,1.78-1.54,4.57.34,9.16.94,13.73.84,16-.37,32.08-.82,48.1-1.59,9.92-.48,19.82-1.4,29.69-2.5,12.91-1.44,25.79-3.25,38.67-4.94a34.62,34.62,0,0,0,4-1,31,31,0,0,0-4.2-2.26,5.88,5.88,0,0,0-2.63.2c-9.8,1.49-19.6,2.94-29.38,4.51-2.68.43-5.28,1.31-8,1.8-1.7.31-3.48.16-5.2.41-4.6.67-9.16,1.73-13.79,2.12-9.24.77-18.51,1.29-27.77,1.73-7.76.36-15.54.8-23.29.56-11.82-.35-23.62-1.26-35.43-1.94,1.3-.47,2.62-1.4,3.91-1.35,17.31.56,34.62,1.84,51.92,1.72,11.41-.08,22.85-1.83,34.2-3.35,19.55-2.61,39-5.6,58.56-8.52a25.34,25.34,0,0,0,5.43-1.71c.34-.13.4-1,.58-1.55-.46,0-1.17-.3-1.36-.1-2.78,3-6.65,2-10,2.75s-6.74,1.07-10.12,1.58l-.16-.86c3.1-.53,6.18-1.42,9.29-1.52,5-.16,8.64-3,12.26-5.88a3.3,3.3,0,0,0,.63-2.7,13.14,13.14,0,0,0-1.5-3.48c-.57-1.07-1.27-2.07-1.92-3.1,2-.28,4-.87,6-.66.73.08,1.68,2,1.78,3.13a59.63,59.63,0,0,1-.3,6.79,9,9,0,0,0,.23,2.54c.55,2,1.63,4,1.74,6.08.18,3.28,1.58,3.64,4.41,3.1,6-1.15,12-2,18-2.89a13.27,13.27,0,0,1,2.66.12c-.14,1.61,0,4.51-.45,4.61-4.51.92-3.83,5.2-5.48,7.88-3.4,5.54-7,11-10,16.74s-7.46,10.13-12.59,14c-11.86,9-23.56,18.29-35.3,27.47a18.23,18.23,0,0,0-1.59,1.58,14.45,14.45,0,0,0,2.29,1,9.47,9.47,0,0,0,2.66.27c3.86-.14,5.47,2.43,6.62,5.49.87,2.32.14,3.25-2.47,3.48-.35,0-.92.51-.92.79a7.52,7.52,0,0,0,.33,2.45c.31,1,.79,2,1.19,3-1.13.28-2.3.89-3.4.78-5.82-.6-11.62-1.44-17.45-2a6.57,6.57,0,0,0-3.35.86c-3.52,1.79-7,3.64-10.43,5.61-2.18,1.24-4.18,2.79-6.33,4.09-3.14,1.88-6.35,3.65-9.52,5.47-1.85,1.06-3.73,2.06-5.52,3.22-2.38,1.55-4.61,3.35-7,4.81-3.24,2-6.55,3.82-10,5.49-7,3.41-14.08,6.56-21,10-11.54,5.69-23.83,9.09-36.29,12-4,.91-7.8,1.32-7.56,6.92.09,2-2.83,2.84-5.21,1.67-1.94-1-3.69-2.31-5.63-3.25s-3.94-1.51-5.9-2.28a5.93,5.93,0,0,1-1.55-.83,19.07,19.07,0,0,1-1.6-1.64,14.08,14.08,0,0,0-.4,2.55q.75,34.4,1.56,68.79a5,5,0,0,0,.06.77c.44,3.08.44,3-3.38,2.88a8.16,8.16,0,0,0-2.37.65c.61.3,1.23.87,1.83.85,13.87-.47,27.74-1,41.6-1.5,1.87-.07,4.9-1.63,5.21,1.08a9.87,9.87,0,0,1-2.73,7.27c-1.55,1.47-4.71,1.82-7.11,1.69-3.68-.19-6.18.66-7.2,4.41-1.69,6.18-6.38,7.25-11.87,7-3.31-.15-6.63-.16-9.94-.41-2.66-.21-3.53.8-3.52,3.47,0,11.22,0,22.44-.24,33.65-.2,9.55-1,19.1-.94,28.64.1,8.47,1.13,16.93,1.69,25.41.33,5.08.57,10.17.79,15.26.09,2.09.64,3.76,2.93,4.32.24.06.57.1.7.27.8,1.11,1.56,2.25,2.34,3.38l-3.72,1.68c6.42-.93,7.76,4.7,10.85,7.79,3.4,3.39,5.76,7.81,9.17,11.17,4.61,4.55,10.7,7.32,15,12.51,1.83,2.23,5.51,2.9,8.21,4.51a16.15,16.15,0,0,1,3.31,3.15c1.42,1.56,2.61,3.35,4.15,4.77,1.34,1.24,1.09,1.46-.51,1.54-3.94.19-7.88.41-11.82.62-1,.06-2,.05-3,.19a4.22,4.22,0,0,0-1.24.65c.41.19.82.54,1.22.53,3.56-.09,7.12-.27,10.68-.36a6.44,6.44,0,0,1,1.71.44c-.51.43-1,1.19-1.53,1.21-3.43.19-6.88.14-10.31.31a22.62,22.62,0,0,0-6,1.14c7.24,0,14.47,0,21.71-.06.43,0,1-.71,1.22-1.22a5.25,5.25,0,0,0,0-1.82,9.3,9.3,0,0,1,2.07.77,22,22,0,0,1,1.64,1.57c.82.65,1.71,1.2,2.57,1.79a24.55,24.55,0,0,1-3.68,1.47,19.72,19.72,0,0,0-4.14.9c2.77,0,5.54,0,8.31,0,.4,0,.8.43,1.2.66-.35.3-.67.78-1.06.86a19.59,19.59,0,0,1-2.66.18c-8.51.52-17,1-25.53,1.58-3.3.21-6.59.54-9.29.77h42c0,.28,0,.56,0,.84h-28.42l0,1.11,2.71.26,0,.23h-32.39v.39h10.1v.73c-2.73,0-5.46-.06-8.19,0a5.71,5.71,0,0,0-1.9.82c.66.25,1.3.55,2,.74.45.13.94.09,1.4.74h-12.66l0-.54,5.77-.36.11-.4a5.81,5.81,0,0,0-1.81-.59c-5.61.11-11.21.29-16.81.46-2,.07-2.65,2.35-5.13,2.3-8.12-.16-16.26.39-24.39.58-.71,0-2.9.93-1.65-1.51a7.37,7.37,0,0,0-2.1-.5,98.75,98.75,0,0,0-11.41,1.18l5.88.3,0,.5a17.11,17.11,0,0,1-3.2.64c-12.11.1-24.35,1.26-36.3-.1-11.73-1.33-23.34-.35-35-.9-1.48-.07-3,.5-4.48.62-5.17.42-10.34.88-15.52,1.11a41.17,41.17,0,0,1-8.38-.38c-6.08-1-12,1-18,.69s-12.45.61-18.67.61c-9.16,0-18.31-.36-27.47-.48-3.56,0-7.13.26-10.68.12a48.15,48.15,0,0,1-6.58-1.13c-1.11-.19-3.08-.78-3.2-.53-1,2.29-3,1.22-4.48,1.32-2.28.14-4.58-.06-6.88-.1s-4.34,0-6.5-.07a18.56,18.56,0,0,1-6.36-1.24h8.06v-.43c-5.05-.25-10.28-1.36-15.1-.43-3.2.63-5.68-.72-8.53-.6-3.18.14-6.37-.14-9.56-.27-9.8-.4-19.6-.77-29.39-1.27-1.87-.1-3.51,2.24-5.46.4-3.92,2.06-7-1.36-9.61-1.37,2.39-.85,5.46-1.93,8.53-3a4.27,4.27,0,0,0,.89-.61c-.37-.26-.72-.69-1.12-.76a21.62,21.62,0,0,0-2.67-.15l-26-1.19a1.9,1.9,0,0,1-.76-.06c-1.36-.7-2.71-1.44-4.06-2.17A19.52,19.52,0,0,1,753,779c4.29-.14,8.6-.05,12.9-.05V778c-2.65,0-5.3.08-7.94,0a9.23,9.23,0,0,1-3.27-.79c-.61-.28-1-1.08-1.47-1.64.57-.26,1.13-.5,1.69-.77,1.13-.53,2.27-1,3.38-1.63.51-.27,1.42-.86,1.36-1-1.26-3.51,1.35-2.75,3.09-2.81,1.25,0,1.9.05.57-1.24-1.85-1.78-.89-3.13,1.16-3.48,3.6-.6,7.25-.92,10.89-1.22,1.89-.16,3.8,0,5.5,0-2.6-.92-5.37-1.87-8.11-2.92-.17-.06-.19-1.22-.06-1.26,6.22-2.29,10.35-7.19,14.81-11.68a7.69,7.69,0,0,1,2-1c2.39-1.23,5.5-1.56,6.09-5,0-.27.54-.6.88-.68,4.12-1,5.76-4.86,8.36-7.51a80.74,80.74,0,0,0,8.2-10.58c.64-.92.57-2.44.57-3.69,0-23.32-.06-46.64,0-70,0-11.47.34-22.94.71-34.4.1-3-.8-4.09-3.86-3.83-4.06.34-8.15.39-12.23.42-3.89,0-7-1.32-8.15-5.44-1.25-4.44-4-6.12-8.72-5.88-5.5.28-8.21-2.45-9-7.74-.51-3.41.65-4.79,3.92-4a116.65,116.65,0,0,0,31.86,3.12c.25,0,.66-.14.74,0,2.58,3.45,6,.42,8.91,1.08.72.16,1.65-.57,2.48-.89a8.45,8.45,0,0,0-2.55-1.17c-1.88-.18-3.8-.06-5.82-.34,1.82-.6,3.07-1,3.27-3.49a602.7,602.7,0,0,0,1.3-63,22.7,22.7,0,0,0-.66-3.58c-1.13.49-2.28.92-3.37,1.49s-2.11,1.48-3.27,2c-3.13,1.28-5.37.08-5.47-3.23s-1.57-4.54-4.52-5a190.78,190.78,0,0,1-42.08-12.08c-9.34-3.81-18.23-8.71-27.33-13.11-4-2-8.22-3.69-12.14-5.87-2.95-1.64-5.53-3.94-8.4-5.74-.83-.52-2.47.09-3.12-.5-2.35-2.12-5.21-3-7.93-4.41-3.72-1.86-7.15-4.41-11.06-6-.58-.25-1.34-.49-1.62-1-2.65-4.56-7-3.33-10.88-3-4.82.35-9.6,1.19-14.38,1.92-2.55.39-4.2-.19-4.64-3a30.31,30.31,0,0,0-1.37-5.54c-1.4-4-.46-6.08,5-7.28,2-.43,4-.55,6-.91a9.89,9.89,0,0,0,2-.84,13.27,13.27,0,0,0-1.54-1.55c-8.4-6-16.84-11.94-25.21-18-6-4.32-11.92-8.75-17.82-13.2a11.69,11.69,0,0,1-2.83-3q-7-11.37-13.91-22.86c-2.16-3.6-1.88-4.12,2.09-4.72.53-.07,1.42-.41,1.44-.69a39.78,39.78,0,0,0,0-4.23c-.31.2-.87.37-.9.61-.21,1.58.83,3.89-2.51,3.2-5.49-1.15-6.26-1.7-6-5.06.12-1.58.2-1.79,2.35-1.74,6.93.18,13.53,1.89,20.25,3,1.8.31,2.72-.09,3-2.22.35-2.59,1.4-5.08,2-7.64a9.65,9.65,0,0,0-.21-2.53,65,65,0,0,1-.3-7.88c0-.68,1.5-1.63,2.43-1.8a12,12,0,0,1,3.78.35c1.48.22,2.2.68.73,2.06a8.09,8.09,0,0,0-1.45,2.23c-2.1,4-1.33,6.6,2.91,8.28a96.69,96.69,0,0,0,10.77,3.21,27.34,27.34,0,0,1,5.56,1.55l-15.27-1.73-.08.7L648,376.46c-1.4,0-2.8,0-4.19-.1a29.24,29.24,0,0,0-4.93-.21c-.8.1-1.47,1.19-2.19,1.83a17,17,0,0,0,2.27,1.44,7.18,7.18,0,0,0,1.88.3c12.88,1.67,25.75,3.41,38.63,5,5.13.61,10.3.8,15.45,1.18l.19-.83a16.59,16.59,0,0,0-3.38-1.28c-9.8-1.44-19.64-2.66-29.42-4.21C657.43,378.78,652.66,377.46,647.85,376.38Zm523.88,25.49c-7.35,0-14.71-.11-22.06-.08-.66,0-1.31.63-2,1a6.39,6.39,0,0,0,2,.65c5.6-.07,11.2-.13,16.8-.4a27.08,27.08,0,0,0,5.14-1.24l18.94-1.85c-5.76-.68-11.56-.74-17.34-1.06C1169.89,398.67,1170.36,399.94,1171.73,401.87ZM1245,385.61c-2.84.45-5.66,1-8.51,1.33-4.63.5-9.27.83-13.91,1.24a24,24,0,0,0,7.19,1.07c3.8,0,7.62-.57,11.4-.36,2.79.16,3.85-.71,3.73-3.36a15.17,15.17,0,0,0,1.9.05c3.78-.31,7.55-.62,11.32-1,.45-.05.85-.68,1.27-1a5.12,5.12,0,0,0-1.43-.19C1253.59,384.06,1249.27,384.84,1245,385.61Zm-219.13,24.93c1.9-.16,3.79-.45,5.69-.46,4.83,0,9.67.14,14.5.16a7,7,0,0,0,2-.6,14.82,14.82,0,0,0-1.8-1.2,3.72,3.72,0,0,0-1.49-.26c-6-.13-12-.29-17.93-.33-2.86,0-1.37,1.57-.87,2.74a5.66,5.66,0,0,0-1.75-.71q-10.64-.58-21.27-1c-.42,0-.88.64-1.32,1,.52.39,1,1.11,1.56,1.11,4.18.08,8.38.07,12.56,0C1019.05,410.9,1022.44,410.69,1025.82,410.54Zm-25,220.2.33,0c-.29,2-.56,4-.88,5.92a9.42,9.42,0,0,1-.42,1.37,4.21,4.21,0,0,0-.6-1.26,6.74,6.74,0,0,0-1.47-.88,6.24,6.24,0,0,0-.52,1.62c-.09,3-.19,6.06-.13,9.09,0,2.61,0,2.91-2.12,3.38a.65.65,0,0,0-.33.21l-5.09,6.19c.54.38,1.12,1.12,1.6,1.06.67-.1,1.22-.87,1.9-1.2s2.43-2,1.06.72c.34.17.92.55,1,.47.78-.83,1.43-1.78,2.21-2.6a10.38,10.38,0,0,1,1.7-1.2,7,7,0,0,1,1.08,1.89c.85,4.44-.12,8.55-3.51,11.53a31.85,31.85,0,0,1-8.58,5.54c-12.29,5.07-25,7.69-38.43,6a72.24,72.24,0,0,1-26.06-8.28c-5.4-3-8.84-7.59-7.7-13.7a87.5,87.5,0,0,0,1-19.31c-.3-9.17-.35-18.34-.43-27.51,0-2.36-.4-3.42-2.87-1.73a18.69,18.69,0,0,1-5.4,2.77c-1.65.44-2.16,1-2.17,2.67q-.3,47-.79,94c0,2.79,1,3.43,3.59,3.4,7.63-.09,15.27.17,22.91,0,27-.47,54-1.09,81-1.52,3.17,0,3.05-1.73,3.05-3.9q0-31,0-61.94,0-14.72.06-29.44c0-2.11.13-3.44-2.9-4.06-2.32-.47-4.24-3.32-6.1-5.34-.49-.54.07-1.94-.15-2.87a2.36,2.36,0,0,0-1.35-1.35c-.81-.3-1.91,0-2.59-.41-2.44-1.52-2.58-.2-2.69,1.79-.35,6-.8,12-1.25,17.92-.24,3.17-.76,6.33-.78,9.49,0,1.64.79,3.29,1.23,4.93Zm-36.47-51c5.35-.66,10.7-1.36,16.05-2a18.85,18.85,0,0,1,3.42.23,18.53,18.53,0,0,1-2.93,1.15,21.89,21.89,0,0,1-5.69.77c-2.42-.17-3.31.69-2.14,2.69,2.25,3.87,2.37,8.1,2.79,12.32.05.56.62,1.08.94,1.61.44-.59,1.32-1.26,1.23-1.76a12.07,12.07,0,0,0-1.45-3.88c-1.79-3,2.65-2,2.46-3.89a18.9,18.9,0,0,1,2.11,1.06c1,.67,2,1.44,2.94,2.17a17.26,17.26,0,0,1,1.19-3.3,11.25,11.25,0,0,1,2.11-2.08,13,13,0,0,1,.88,1.85c.91,3-1.23,6.5,1.34,9.3-.63.51-1.28,1.48-1.9,1.45-2.37-.08-7.44.13-8.65.8a9.19,9.19,0,0,0-1.65,1.49c.73.24,1.52.8,2.17.67a75.66,75.66,0,0,0,9.57-2.27,4.16,4.16,0,0,0,2.44-2.86c.25-2.26-.44-4.63-.24-6.91.09-1.12,1.27-2.16,2-3.19.1-.14.58,0,.88,0-.21.94-.42,1.88-.64,2.81,0,.13-.11.23-.14.36-.08.44-.15.88-.23,1.32.46-.17,1-.21,1.34-.52a9.5,9.5,0,0,0,1.24-1.81c.31-.53.55-1.09.82-1.64a6.69,6.69,0,0,0,1.06,1.28c1.33,1,2.72,1.84,4.09,2.75a18.94,18.94,0,0,0,.84-3.92c.06-20,.12-40,0-60,0-2.7-1-5.43-1.87-8.06-.19-.61-1.56-1.17-2.4-1.19-7.27-.12-14.53-.17-21.8-.11-3,0-4.38,2.8-3,5.59a4.56,4.56,0,0,1,.09,2c0,1.05-.46,2.24-.1,3.12,1.42,3.49,1,7,.38,10.5-.42,2.37-.12,5.51-1.52,6.89s-4.49.79-6.84,1.08c-.1,0-.19.12-.73.46,2.5.64,4.67,1.17,6.82,1.76a6,6,0,0,1,1.21.62,3.54,3.54,0,0,1-1.23.47c-3.7-.12-7.39-.29-11.08-.49-.18,0-.54-.59-.48-.68.82-1.21.83-1.17-.32-1.37-1.93-.34-3.42.88-5,1.28a19.55,19.55,0,0,1-9.93-.24c-1.19-.36-1.41-3.94-2.12-6-.39-1.16-.92-2.27-1.34-3.43a3.1,3.1,0,0,1-.32-1.57c.54-2.45,3.26-4.71.51-7.44-.19-.19.38-1.14.61-1.73.55-1.43,1.15-2.83,1.66-4.27,1.69-4.73.55-6.45-4.41-6.48-9.38-.06-18.76-.06-28.15-.07-4.94,0-5,0-5,5.13q-.06,32.49-.1,65a15.22,15.22,0,0,0,0,1.91c.37,3.06,2.56,3.33,5,3.24,2.07-.09,3.86.45,4.51-2.93,1.38-7.2,3.66-14.23,5.57-21.33.36-1.33.74-2.59,2.54-1.36a4.94,4.94,0,0,0,1.68.41,10.7,10.7,0,0,0-.58-1.39c-1-1.74-.14-1.6,1.17-1.25,2.34.62,4.69,1.2,7.06,1.69,13.52,2.76,27.15,1.89,40.77,1.12,4-.23,8-.38,12.06-.56l.05.93-20.3,3.18.06.76h6A36,36,0,0,1,965,572.9c-.38.09-.6.81-.9,1.24.44.15.93.52,1.3.42,1.34-.38,2.62-1.22,4-1.32,2.27-.16,5.18-1.37,6.17,2.62-1.59-.93-2.93-2.52-4.38-.12-.16.28-2.24,1.85-2.95-.39l-2.77.91C968.41,578.71,964.63,578,964.31,579.7ZM611.79,379.27l-.07.8c3.31.9,6.58,2,9.92,2.68,10.8,2.33,21.61,4.57,32.43,6.79,8.95,1.84,17.91,3.58,26.86,5.4,3.48.71,6.92,1.68,10.42,2.23,2.59.41,5.29.12,7.88.51,3.4.51,6.71,1.67,10.11,2s7-.27,10.41.12c6.06.7,12,2.16,18.11,2.74,9.29.87,18.62,1.35,27.94,1.84,8.2.43,16.08,3.09,24.57,2.17,7.54-.82,15,2.16,23,1.2,8.56-1,17.22,2.07,26.11,1.1,5.72-.61,11.64.78,17.48,1.14,5.31.32,10.62.46,15.93.68,2.29.1,4.58.21,6.87.29,5.68.17,11.36.31,17,.51,2.41.08,4.82.42,7.22.37,4.92-.1,9.83-.46,14.75-.56,2.92-.06,5.84.25,8.77.28,3.91,0,7.82-.18,11.73-.05s8.11.76,12.17.79,8.09-.62,12.13-.59c11.29.08,22.58.36,33.87.49.71,0,1.44-.63,2.16-1-.74-.37-1.45-1-2.2-1.06-5.86-.31-11.71-.5-17.57-.71a11.05,11.05,0,0,0-1.51.16,64.18,64.18,0,0,1-8.48.81c-5-.15-10.06-1.64-14.79-.82a41.89,41.89,0,0,1-11.23.13c-3.92-.35-8.12-1.74-11.71-.8-4.17,1.1-8,.6-12,.46-4.79-.17-9.45-.59-14.37.05-5.39.7-11.09-1-16.67-1.51a18.16,18.16,0,0,0-3.67.23c-2.1.22-4.22.82-6.29.69-5.21-.34-10.52-2-15.55-1.29-7.39,1-14.36-.82-21.51-1.28a8.23,8.23,0,0,1-2.2-.8,8.71,8.71,0,0,1,2.48-.57c4.68.39,9.35,1,14,1.33a24.26,24.26,0,0,0,4.39-.42,20.76,20.76,0,0,0-3.88-1.57c-3.72-.72-7.53-1.07-11.24-1.86-3.46-.73-6.81-2-10.26-2.76-2.8-.65-6.27.71-8-2.91-5.52-.67-11-1.43-16.57-2-2.57-.25-5.2.14-7.77-.13-4-.42-8-1.25-12.09-1.69-.79-.08-1.69.79-2.54,1.23a8.68,8.68,0,0,0,2.13,1.15c9,1.86,17.92,3.64,26.87,5.48a7.12,7.12,0,0,1,1.71.88,19.92,19.92,0,0,1-2.13.5,3.29,3.29,0,0,1-1.11-.25c-11.52-3-23.51-3.77-34.84-7.67-2.24-.77-4.78-.66-7.16-1.08a6.46,6.46,0,0,1-1.81-1,5.37,5.37,0,0,1,1.74-.54c2.53.12,5.06.37,7.59.55a9,9,0,0,0,1.46-.14c-.45-.27-.89-.74-1.36-.78-4.56-.38-9.13-.87-13.7-1-11.18-.31-22.37-.46-33.55-.64-4.11-.06-8.23,0-12.34,0v.23l12.44,2.45-.19,1.08c-1.32-.17-2.63-.45-4-.5-7.14-.24-13.44-4.48-20.74-4.19a77.23,77.23,0,0,1-11.75-.71c-3.53-.41-7-.29-10.64-1-10.86-2-21.95-2.77-32.95-4-4.92-.56-9.83-1.23-14.77-1.59s-9.83-.22-14.72-.59C620.32,380.56,616.06,379.83,611.79,379.27ZM1050,659.57h.64c0-14.14.06-28.29,0-42.43,0-7.75,1.15-7.43-7.46-6.81-3.17.22-4,1.33-3.92,4.4.33,29.68.5,59.36.72,89,0,5.63.09,5.53,5.83,5.69,3,.09,4.31-.71,4.28-4C1050,690.14,1050,674.86,1050,659.57Zm.28-105.9h-.73q0-17.16,0-34.33a8.2,8.2,0,0,0-.59-2c-.53.39-1.08.75-1.59,1.16-1,.79-1.92,1.6-2.88,2.41-.72-1-1.39-2-2.2-2.88-.44-.48-1.17-1.11-1.68-1a2.7,2.7,0,0,0-1.95,1.25,11,11,0,0,0-.18,3.4q.36,30.92.71,61.83c.08,7.36,0,7.22,7.25,7.36,3,.06,4-1,3.92-3.93C1050.23,575.8,1050.31,564.74,1050.31,553.67ZM883,658.26h-.5c0-8.4,0-16.79,0-25.19-.05-6.62-.55-13.26-.26-19.86.13-2.9-.56-3.36-3.15-3.41-3.15-.06-2.72,2-2.72,3.81q0,41.82.15,83.65a87.25,87.25,0,0,0,.35,9.15,3.49,3.49,0,0,0,2,2.44c1.46.47,2.26-.51,2.32-2.12.07-2,.39-4.06.46-6.09Q882.29,679.45,883,658.26Zm73.89-256.57.14-.92,9.08.61a41.1,41.1,0,0,0,4.57.2c.64,0,1.26-.62,1.88-1a5.59,5.59,0,0,0-1.74-1,89.59,89.59,0,0,0-9-1.42,36.76,36.76,0,0,0-6.45.29c-2.2.2-4.4.8-6.58.73-4.44-.13-8.86-.73-13.3-.89-3.49-.13-7,.18-10.5.15-3,0-6.32-1-9.09-.22-6.94,2-13.38-.8-20-1.3-4.61-.35-9.08-2.2-13.66-3.06-2.14-.41-4.41-.07-6.62-.07a122.75,122.75,0,0,0,15.18,2.9,7.73,7.73,0,0,1,1.94.86c-.7.4-1.43,1.19-2.09,1.14-2.14-.18-4.25-.8-6.39-1-3.63-.36-7.28-.69-10.93-.74-2.7-.05-5.42.5-8.13.52q-7.17,0-14.35-.3a45.69,45.69,0,0,1-6.33-1c-.44-.08-.81-.56-1.21-.85.44-.2.88-.39,1.31-.6s.84-.45,1.27-.68c-.15-.17-.3-.5-.43-.49-3,.21-5.6-2.76-8.82-.93-1.18.67-2.66.79-3.94,1.32-.57.24-1.37.89-1.37,1.34s.76,1.5,1.21,1.52c6.29.23,12.14,3.22,18.81,2,4.16-.77,8.79.79,13.17,1.51,7.06,1.17,14.09,2.51,21.13,3.78l-.13.86-34.81-5.23-.14,1c3.89.55,7.77,1.08,11.65,1.67a11.11,11.11,0,0,1,2.26.68c-.64,2.58,1.44,1.59,2.36,1.72,8,1.1,16,2.3,24.26,1.56,3.84-.34,7.81.94,11.73,1.32.85.08,1.77-.54,2.66-.84-.74-.5-1.42-1.32-2.23-1.45-8.88-1.5-17.77-2.9-26.67-4.29a25.93,25.93,0,0,0-3.06-.11,5.08,5.08,0,0,1-1.52-.07,16.53,16.53,0,0,1-2.06-1.12,12.25,12.25,0,0,1,2.33-.83,12.62,12.62,0,0,1,2.28.16c6.36.27,12.44,1.62,19.15.57,8.59-1.34,17.64.27,26.5.7,1.89.09,3.76.68,5.65.89a38.8,38.8,0,0,0,4.58.15c4.55,0,9.1-.21,13.65,0,5.91.21,11.81.71,17.71,1.09l0-.81ZM877.05,555.2H877c0,8.14,0,16.29,0,24.43,0,2.67-.31,5.34-.29,8,0,2.39,1.81,2.74,3.73,2.83,2.27.11,1.9-1.5,1.94-2.86.16-6.11.34-12.21.47-18.32.33-14.62.7-29.24.89-43.87a23.52,23.52,0,0,0-1.33-6.66,2,2,0,0,0-3.73.18,26.44,26.44,0,0,0-1.51,6.88C877,535.61,877.05,545.4,877.05,555.2ZM788.16,784.72c1.41.14,2.46.34,3.52.34,4.46,0,8.92,0,13.39,0a15.6,15.6,0,0,1,3.39.44c.37.09.63.66.94,1-.39.25-.77.71-1.17.73-1.26,0-2.54-.07-3.81-.09q-6.09-.11-12.19-.17a6.52,6.52,0,0,0-1.41.32,4.23,4.23,0,0,0,1.42.66c7.26.27,14.51.53,21.77.7q21.22.48,42.45.84c6.28.1,12.56,0,18.85,0a2.47,2.47,0,0,0-1.82-.61c-18.47-.56-36.94-1.09-55.4-1.69a26,26,0,0,1-4.13-.83l4-.87v-.78ZM963.27,541.35a64.31,64.31,0,0,0-2.69-7.34,3.5,3.5,0,0,0-2.94-1.58,5.18,5.18,0,0,0-2.85,2.54,16,16,0,0,0-1.06,4.42c-1.26,6.66-1.26,6.56,5.51,5.92C961.78,545.08,963.51,544.6,963.27,541.35Zm-45.2-154.7,0,1.15h4.06q32.31,0,64.62.07a30,30,0,0,0,4.56-.72c-1.46,0-2.92-.16-4.38-.16-17.14.09-34.29.22-51.44.25-3.15,0-6.31-.45-9.46-.57C923.4,386.57,920.73,386.65,918.07,386.65Zm113.07,5.59.11-1.23a35.63,35.63,0,0,1-3.73-.05c-.38,0-.69-.68-1-1,2-1,.83-1.22-.35-1.17q-14.64.58-29.27,1.27c-.42,0-.82.4-1.23.61.33.3.64.85,1,.87,4.52.3,9,.53,13.55.78-.81-.69-1.64-1.39-2.48-2.08,1.1-.12,2.2-.27,3.3-.34a8.62,8.62,0,0,1,1.5.17ZM891.6,401.62l0,.58c4,.52,8.18.55,12,1.67,4.65,1.36,9.23,2.69,14.11,2.93,2.91.15,5.81.63,8.72.89.43,0,.89-.29,1.34-.45a6.75,6.75,0,0,0-1.29-.53c-8-1.47-16-3-24-4.31C898.92,401.83,895.24,401.87,891.6,401.62Zm44.46,2.29,0,.35a12.41,12.41,0,0,0-2.66,0,8.73,8.73,0,0,0-2,1.08,8.35,8.35,0,0,0,1.92.85q6.38,1,12.78,2a24.17,24.17,0,0,0,4.17.15c.37,0,.72-.56,1.08-.86-.34-.32-.64-.86-1-.94C945.52,405.63,940.79,404.78,936.06,403.91Zm123.65,4.66v.61c3.69,0,7.38,0,11.06,0a6.21,6.21,0,0,0,1.69-.56c-.54-.43-1.06-1.2-1.61-1.22-6.87-.3-13.75-.5-20.62-.69-.39,0-.79.36-1.18.56.21.31.35.8.64.91a8.47,8.47,0,0,0,2.81.76C1054.9,408.91,1057.3,408.7,1059.71,408.57Zm-64.52-21.94V387h56.74v-.36Zm243,3.6.09,1.17c8,1.66,15.67-1.8,23.58-1.72l-.11-1.45Zm-152.43,16.14c-3.51,0-6.55-.06-9.58.05-.54,0-1.06.73-1.59,1.12.49.25,1,.72,1.48.73q9.48.21,19,.26a7,7,0,0,0,2-.6c-.62-.37-1.22-1-1.86-1.05C1091.82,406.62,1088.54,406.51,1085.72,406.37Zm-127.41-1.21a15.32,15.32,0,0,0-2.91,0,8,8,0,0,0-1.8,1,8.18,8.18,0,0,0,2,.71c2.91.29,5.83.46,8.74.73,2.53.23,5.06.6,7.59.77.61,0,1.25-.49,1.87-.75a6.54,6.54,0,0,0-1.68-.73C967.3,406.27,962.49,405.69,958.31,405.16Zm151-.34v.08c-3.06,0-6.12,0-9.17,0-.48,0-.94.52-1.41.79.36.35.65.89,1.07,1a6.82,6.82,0,0,0,2.26.21q8.76-.27,17.53-.63a5.46,5.46,0,0,0,1.58-.62c-.53-.3-1-.83-1.58-.85C1116.2,404.78,1112.78,404.82,1109.35,404.82ZM968,397.05a40.68,40.68,0,0,0,4.66-.06c.56-.07,1-.75,1.54-1.16a5.84,5.84,0,0,0-1.62-.61c-2.26-.14-4.52-.15-6.78-.26-2.77-.14-5.54-.38-8.31-.46-.47,0-1,.59-1.44.9.5.29,1,.78,1.5.83C961.14,396.57,964.8,396.81,968,397.05Zm177.76,7.57-.09-1.12c-6.53,0-13.06,0-19.59.05-.59,0-1.18.67-1.76,1,.6.3,1.21.87,1.8.85C1132.62,405.21,1139.17,404.9,1145.71,404.62Zm68.61-6.76c0-.26,0-.51,0-.77h-23.93a56.16,56.16,0,0,0,11.6,1.4C1206.09,398.53,1210.21,398.09,1214.32,397.86Zm-232.06,7.59v.17c-1.4,0-2.8-.05-4.2,0-.38,0-.74.46-1.11.71a5.47,5.47,0,0,0,1.29.48c4,.38,8.1.71,12.14,1.08,1.64.14,3.28.4,4.92.51a3.73,3.73,0,0,0,1.32-.46c-.38-.24-.73-.65-1.13-.71C991.08,406.63,986.67,406.05,982.26,405.45Zm50.24-.26v-.36c-2.78,0-5.56,0-8.34,0-.42,0-.83.38-1.25.58.37.25.72.7,1.1.72q8.13.44,16.26.73c.53,0,1.08-.43,1.61-.66-.61-.34-1.2-1-1.82-1C1037.54,405.13,1035,405.19,1032.5,405.19Zm-59-12c-4.76-.93-9.3-1.84-13.85-2.7a5.92,5.92,0,0,0-2.26,0,5.16,5.16,0,0,0-1.5.91,7,7,0,0,0,1.5.7,46.38,46.38,0,0,0,5.23.87C966.16,393.27,969.7,395.19,973.49,393.2ZM885.67,389v-.2c-2,.12-4.06.19-6.08.39-.38,0-.7.59-1,.91.37.29.72.77,1.12.83a57.44,57.44,0,0,0,8.33.88c1.08,0,2.14-1.33,3.21-2.06a26.06,26.06,0,0,0-2.86-.73A19.8,19.8,0,0,0,885.67,389Zm87.87,202.73a23.1,23.1,0,0,1-2.79-2.81c-.32-.45,0-1.36,0-2.06a5.87,5.87,0,0,0,1.42.79c.29.07,1-.22,1-.39.13-1.55-.95-2.54-2.68-2.67-.19,0-.35-.5-.49-.79a26.93,26.93,0,0,0-1.26-2.45c-.21-.33-.75-.45-1.14-.66a4.42,4.42,0,0,0,0,1.09c.82,3.55,1.64,7.11,2.51,10.65.07.29.64.74.79.67C971.81,592.7,972.67,592.18,973.54,591.71ZM1019.63,407c0-.22,0-.45.07-.67-2.86-.26-5.72-.53-8.59-.78s-6-.56-9.07-.7a6.31,6.31,0,0,0-2.19.79,13.09,13.09,0,0,0,2.08.5c3.78.32,7.56.63,11.34.84C1015.38,407.09,1017.51,407,1019.63,407ZM907.91,387.53v-.35H875.82v.35Zm357.88-.38c4.92-.75,9.32-1.41,13.72-2.11a5.61,5.61,0,0,0,1.29-.56c-.49-.28-1-.82-1.47-.8-4.42.23-8.83.5-13.23.92-.57.06-1,1.07-1.57,1.64Zm-128.45,11.44v.64h21.82v-.64Zm-8.84-.37c0-.26,0-.52,0-.78-5.27-.33-10.55-.69-15.82-1a25.55,25.55,0,0,0-3.8.26,4.68,4.68,0,0,0-1,.34c.33.27.64.71,1,.77a18,18,0,0,0,3.36.36C1117.64,398.24,1123.07,398.22,1128.5,398.22Zm-206-4.31,0,.28c-1.26,0-2.52-.06-3.78,0a4,4,0,0,0-1.24.59,3.93,3.93,0,0,0,1.15.59c3.49.45,7,.9,10.47,1.25a6.1,6.1,0,0,0,1.9-.45c-.47-.36-.9-.91-1.43-1C927.18,394.68,924.83,394.32,922.48,393.91Zm81.84,5.34v.19c1.77,0,3.54,0,5.31,0a5.81,5.81,0,0,0,1.09-.2c-.27-.21-.52-.56-.81-.59-3.63-.42-7.25-.84-10.89-1.14-.47,0-1,.6-1.51.93.5.27,1,.75,1.5.78C1000.78,399.31,1002.55,399.25,1004.32,399.25Zm279.68-18c6.8,2.88,13.47-1,20.36-2.25ZM962.55,284c0,.5-.27,1.06-.09,1.25,2.36,2.47,4.75,4.9,7.2,7.28.23.22.91,0,1.38-.05-.08-.45,0-1.08-.26-1.33-2.37-2.27-4.81-4.48-7.25-6.68A4.68,4.68,0,0,0,962.55,284Zm274,110.1H1217C1221.23,396.22,1222.73,396.22,1236.53,394.08ZM975.25,666.74c6.1-.21,14.35-4.11,16.88-7.41Zm3.37,123.32v-.52H953v.52ZM914.28,393.13l.25-.29c-2.28-.64-4.95-.76-6.76-2.07-2.74-2-5.2-.77-7.8-.46-.4,0-.76.5-1.13.76.39.22.77.6,1.18.64C904.77,392.21,909.53,392.67,914.28,393.13Zm108.61,4.08V397a18.13,18.13,0,0,0-2.66,0,6,6,0,0,0-1.6.72,10.83,10.83,0,0,0,1.65.43c3.5.36,7,.7,10.53,1,1.64.14,3.29.24,4.93.26.41,0,.82-.37,1.23-.57-.4-.23-.79-.62-1.2-.66C1031.49,397.88,1027.19,397.55,1022.89,397.21Zm175.09-7,.07.11c4.66,0,9.32.12,14-.11.86,0,1.64-1.49,2.46-2.3a22.65,22.65,0,0,0-2.48.26c-1.6.31-3.17.84-4.78,1C1204.15,389.63,1201.06,389.88,1198,390.2Zm-327.26,5.46.15-1.09c-4.7-.64-9.39-1.31-14.09-1.89-.39-.05-.85.41-1.28.64.33.25.63.7,1,.74C861.23,394.63,866,395.13,870.72,395.66Zm183.69-1.28.08-.62c-5-.59-10-1.19-15-1.73-.4,0-.84.36-1.26.55.28.19.54.51.83.54C1044.16,393.56,1049.28,394,1054.41,394.38Zm-141.69,2.09c-8-3.17-12.34-3.58-14.81-2.29,2.14.26,4.63.48,7.09.87S910.15,396,912.72,396.47Zm40.19-2.81-.09-.57c-2.59-.57-5.17-1.22-7.78-1.69-2.37-.42-4.77-.67-7.17-.9-.35,0-.76.43-1.14.67.26.21.5.58.78.62C942.64,392.44,947.78,393.05,952.91,393.66Zm106.71,8-.16-.49c-4-.25-8.06-.52-12.09-.72a7.87,7.87,0,0,0-2.09.47,6,6,0,0,0,1.85.71C1051.29,401.66,1055.46,401.63,1059.62,401.63Zm-66.47-.87.13-.76-15.7-2.2-.06.49ZM771.61,778.85l.22.65c3.29,0,6.57,0,9.86,0,.44,0,.87-.49,1.3-.76a15.91,15.91,0,0,0-2.68-1,12.2,12.2,0,0,0-2.63,0,2.26,2.26,0,0,0,.55.36c.46.15.93.24,1.4.35a7,7,0,0,1-1.63.42C775.87,778.88,773.74,778.85,771.61,778.85ZM983.39,651.52a27,27,0,0,0,4-1.72,9.58,9.58,0,0,0,1.89-2.26c-1.12.17-2.41.06-3.31.6s-.79,2.43-2.62,1.29c-.39-.25-1.37.45-2.08.72ZM804.21,392c-.2-.38-.24-.48-.3-.58-.8-1.27-6.31-2.63-7.69-1.87a3.51,3.51,0,0,0-.74.75,3.92,3.92,0,0,0,1.11.67c2.08.41,4.18.76,6.27,1.09A6.45,6.45,0,0,0,804.21,392Zm180.44.14.7-.31a5,5,0,0,0-1.2-.76,51.09,51.09,0,0,0-5.56-1.22c-.69-.1-1.46.43-2.19.67.59.43,1.13,1.15,1.76,1.24C980,392,981.94,392,984.65,392.13Zm-57.87.13c0-.26.05-.53.07-.79-2.42-.33-4.84-.74-7.27-1a5.32,5.32,0,0,0-2,.66c.71.36,1.41,1,2.15,1C922.09,392.34,924.43,392.26,926.78,392.26ZM986.71,786v-.38c-3.2.35-6.41.66-9.61,1.09-.45.06-.82.69-1.23,1a4.37,4.37,0,0,0,1.45.2C980.45,787.37,983.58,786.69,986.71,786ZM817.34,391.82l-.07.74c2.59.38,5.18.79,7.79,1.11.37,0,.8-.32,1.21-.5-.39-.28-.75-.76-1.16-.79C822.52,392.13,819.93,392,817.34,391.82Zm159.74,2.92,0,.48h7.58v-.48Zm5.6,196.58L980.46,593c.92.7,1.78,1.85,2.77,2s1.95-.89,2.93-1.4Z" transform="translate(-600.07 -268.08)"/><path d="M655.68,375.31c3.45,1,6.77-.69,10.71.72,5.15,1.84,11.14,3.49,17.1,1.58,1.29-.42,3,.34,4.46.64,5.69,1.12,11.38,2.28,17.07,3.38a1.53,1.53,0,0,0,1.23-.33c1.49-1.55,1.46-1.57,2.92-1.26,4.42.92,8.82,2,13.27,2.71,2.19.37,4.38,1.14,6.71-.71,1-.74,3.52.77,5.38.94,5.16.47,10.33.78,15.5,1.11.08,0,.37-.67.27-.8A12.69,12.69,0,0,0,749,382a6,6,0,0,1,2.21-.09c5.15,2,10.5,1.42,15.82,1.35-.18-.69,4,1.27.8-1.31,0,0,.37-.9.66-.95a6.8,6.8,0,0,1,2.25,0c3.94.62,7.86,1.29,12.22,2C739.81,387.39,697.65,382.94,655.68,375.31Z" transform="translate(-600.07 -268.08)"/><path d="M1174.92,794.23h-38.56a28.64,28.64,0,0,1-3.82-.14,16.59,16.59,0,0,1-2.75-.82,10,10,0,0,1,2.84-1.14c3-.2,6.07-.22,9.11-.24,11.45-.11,22.89-.17,34.33-.32,1.25,0,2.49-.72,3.73-.71.8,0,1.61.72,2.41,1.13-.65.6-1.23,1.63-2,1.73a36.5,36.5,0,0,1-5.34.09Z" transform="translate(-600.07 -268.08)"/><path d="M1137.49,382.31c4-.63,8.71-1.4,13.44-2.07a6.18,6.18,0,0,1,2.11.48c-.4.37-.79.77-1.2,1.12a2.81,2.81,0,0,1-.65.32,2.62,2.62,0,0,0,.91.32c4.89-.31,9.83,1.38,14.7-.83,1.93-.88,4.33-1.6,6.28.78.55.68,2.14.86,3.18.73,4.16-.51,8.28-1.26,12.43-1.85a21.28,21.28,0,0,1,3,0,10.49,10.49,0,0,1-2.28,2.06,8.6,8.6,0,0,1-3.62.83c-12.85-.24-25.71-.52-38.56-.92C1143.71,383.15,1140.22,382.59,1137.49,382.31Z" transform="translate(-600.07 -268.08)"/><path d="M1053.43,795.51c-4.83,0-9.66,0-14.49,0a4.92,4.92,0,0,1-1.35-.39c.37-.25.73-.69,1.11-.7,5.29-.2,10.59-.32,15.89-.49s10.62-.38,15.93-.56a8.61,8.61,0,0,1,1.9,0,6.43,6.43,0,0,1,1.54.7c-.5.29-1,.81-1.5.84-5.32.29-10.65.51-16,.73-1,0-2,0-3,0Z" transform="translate(-600.07 -268.08)"/><path d="M1116,794.85c-4.09,0-8.17,0-12.25,0-7.11.08-14.21.22-21.32.32a21.9,21.9,0,0,1-3-.17c-.31,0-.57-.41-.85-.63.3-.32.58-.87.93-.93a18,18,0,0,1,2.65,0c2.15,0,4.32.11,6.46-.06,7.93-.6,15.84-1.35,23.73.45a17.18,17.18,0,0,0,3.66,0C1116,794.16,1116,794.5,1116,794.85Z" transform="translate(-600.07 -268.08)"/><path d="M1200.18,382.46c3.12-1,6.29-2.14,9.55-2.88,1.57-.36,3.32.07,5,.19,1.24.09,2.54.59,3.71.37,5.08-1,10.11-2.2,15.17-3.28a15.64,15.64,0,0,1,2.57-.15c-.59.71-1.05,1.68-1.8,2.07a10.14,10.14,0,0,1-3.56,1q-14.19,1.49-28.38,2.84A13.9,13.9,0,0,1,1200.18,382.46Z" transform="translate(-600.07 -268.08)"/><path d="M892.85,796.06H864.57v-.58h28.28Z" transform="translate(-600.07 -268.08)"/><path d="M1260.61,375l-23.11,3.9-.15-.82c3.05-.54,6.13-.94,9.15-1.65s5.7-1.89,8.63-2.45c1.77-.34,3.69.11,5.54.21Z" transform="translate(-600.07 -268.08)"/><path d="M1006.06,793.07c-4.35,0-8.71,0-13.07,0-2.27,0-4.55.12-6.82.06a20.49,20.49,0,0,1-3.06-.55,13.35,13.35,0,0,1,2.79-.63c6.62-.06,13.23,0,19.84,0Z" transform="translate(-600.07 -268.08)"/><path d="M1027.75,795.58a11.91,11.91,0,0,1-1.89,0c-1-.17-2-.45-3-.68a31.7,31.7,0,0,1,3.19-.54c1.89-.12,3.79-.15,5.69-.11a5.46,5.46,0,0,1,1.66.6,4.61,4.61,0,0,1-1.51.68c-1.38.1-2.78,0-4.17,0Z" transform="translate(-600.07 -268.08)"/><path d="M941.23,549.59c7.21.49,13.8,1,20.4,1.35,2.12.12,4.28-.48,6.36-.24,1.22.15,2.25,1.49,3.49,1.95,2,.77,1.46,1.67.56,3-.33.48.15,1.47-.11,2.06-.48,1.06-.5,3.15-2.73,1.48a3,3,0,0,0-2.85,0c-2.5,2.17-5.75,1.18-8.49,2.29-1.15.46-3.18.66-3.85,0-1.94-1.9-3.65-.92-5.56-.39-1.13.31-2.37,1.81-3.58-.22-.25-.42-1.92-.17-2.86.06-1.31.32-7.64,1.35-8.76,1.19-1.88-.26-3.18-.77-1.78-3.05,1.12-1.84,1.91-3.89,3.06-5.71C936.53,550.17,938,549.5,941.23,549.59Z" transform="translate(-600.07 -268.08)"/><path d="M681.63,389.39c2.81.45,5.63.78,8.41,1.38,2.48.53,4.89,1.4,7.36,2,1,.25,2.29.71,3,.29,4.79-2.89,9.29,0,13.88.53,3.87.48,7.75,1,11.58,1.74,6.23,1.17,12.43,2.51,18.64,3.77l-.18,1-15.67-2.87c-.87-.16-1.83-.73-2.57-.5-6.8,2.06-13.06-1-19.53-1.92a12.23,12.23,0,0,0-3.76-.39c-7.71,1.39-14.12-3.12-21.37-3.74Z" transform="translate(-600.07 -268.08)"/><path d="M836.83,407.21a33.11,33.11,0,0,1-3.86,0c-3.53-.4-7-1-10.57-1.35-7-.63-14.08-1.08-21.11-1.71a32,32,0,0,1-5.14-1.14,6.23,6.23,0,0,1-1.42-.79,5.86,5.86,0,0,1,1.75-.38c4.15.47,8.29,1,12.44,1.5,2,.23,4,.36,6,.45,4.13.19,8.29.07,12.38.56,3.21.38,6.34,1.48,9.5,2.26Z" transform="translate(-600.07 -268.08)"/><path d="M807.07,397.26c2.72,0,5.16-.32,7.49.06,8.05,1.33,16.06,2.88,24.07,4.44a13.51,13.51,0,0,1,3.13,1.48c-1.28.23-2.66.88-3.83.63-5.58-1.21-11.07-2.78-16.65-4C816.73,398.86,812.1,398.17,807.07,397.26Z" transform="translate(-600.07 -268.08)"/><path d="M790.58,404.14a31.31,31.31,0,0,1-3.62-.26c-4.5-.84-9-1.65-13.46-2.7-2.27-.54-4.36-1.82-6.63-2.31-2.84-.61-5.79-.73-8.68-1.13-.41-.06-.78-.48-1.16-.73.38-.21.8-.63,1.16-.58,5.15.59,10.61-.15,15.08,3.46a3.54,3.54,0,0,0,1.43.35l16,3.2Z" transform="translate(-600.07 -268.08)"/><path d="M751,398.42q7.59,1.41,15.17,2.85c.32.07.58.42.86.64-.27.16-.57.5-.8.46-5.15-.93-10.3-1.9-15.44-2.86Z" transform="translate(-600.07 -268.08)"/><path d="M751.85,390.92l15.06,1.66-.09,1c-5.21.82-10.07-2.15-15.24-1.74Z" transform="translate(-600.07 -268.08)"/><path d="M784.87,397.57c3.5.6,7,1.18,10.5,1.82a8.4,8.4,0,0,1,1.6.65c-.6.33-1.33,1.06-1.8.92-3.44-1-6.84-2.25-10.25-3.41Z" transform="translate(-600.07 -268.08)"/><path d="M743.73,392.74l14,1.91-.15,1-14-2.14Z" transform="translate(-600.07 -268.08)"/><path d="M784.92,397.55l-13.55-1.29.23-1.6,13.27,2.91Z" transform="translate(-600.07 -268.08)"/></svg>