<svg id="Layer_1" data-name="Layer 1" xmlns="http://www.w3.org/2000/svg" viewBox="0 0 1247.76 918.14"><defs><style>.cls-1{fill:#06121b;}.cls-2{fill:#9a9b8d;}</style></defs><path class="cls-1" d="M923.35,1031q6.84.43,13.71.79a3.37,3.37,0,0,1,3.18,3.62,80.08,80.08,0,0,0,3.84,31.68,3.44,3.44,0,0,1-.53,3.25,50.2,50.2,0,0,0-11,28.39l-.16,2.45a3.31,3.31,0,0,1-1,2.18c-2,2-3.93,4-5.74,6.14a3.36,3.36,0,0,1-5.89-2.21v-72.94A3.36,3.36,0,0,1,923.35,1031Zm151,295.7H923.14a3.36,3.36,0,0,1-3.36-3.36v-35.86l1,.76c13.07,9.37,35.92,20.55,70.6,20.55h2.1c34.65,0,57.52-11.18,70.6-20.56a39.07,39.07,0,0,0,7.66-7.24,3.35,3.35,0,0,1,6,2.1v40.25A3.35,3.35,0,0,1,1074.37,1326.67Zm0-202.56h-3.08a3.37,3.37,0,0,1-2.92-1.71,87.13,87.13,0,0,0-11.06-15.16c-1.28-1.42-2.6-2.78-4-4.1a3.33,3.33,0,0,1-1-2.41V1100a47.13,47.13,0,0,0-10.73-30.44,3.35,3.35,0,0,1-.55-3.16,80.67,80.67,0,0,0,3.68-30.91,3.34,3.34,0,0,1,3.18-3.58q13.17-.66,26.24-1.61a3.35,3.35,0,0,1,3.6,3.34v87.14A3.35,3.35,0,0,1,1074.37,1124.11ZM1365.54,964c107.53-44.77,220.79-117.34,257.7-219.2a3.36,3.36,0,0,0-4.16-4.33c-14.16,4.42-49.66,15.24-81.74,22.85a3.35,3.35,0,0,1-3.76-4.81c11.53-21.22,4.52-53.47-.15-71.08a3.35,3.35,0,0,0-5.7-1.42c-13.8,15.08-67.55,60.09-222.09,67.59a3.36,3.36,0,0,1-1.69-6.35l1-.48a3.36,3.36,0,0,0-1.32-6.35c-37.3-2.22-146.44-23.4-288.29-181.73-.69-.77-10.18-10.74-15-15.79a3.36,3.36,0,0,0-5.14.34l-12,16.4C869.68,706.9,733.33,736.18,699.8,741.3a3.35,3.35,0,0,0-1.59,5.93l.4.33a3.36,3.36,0,0,1-2.35,6C543,742.69,480.5,699.8,464.82,686.78a3.35,3.35,0,0,0-5.42,1.9c-6.07,30-3.24,54.64,5.22,69.18a71.73,71.73,0,0,0,4.94,7.41,3.36,3.36,0,0,1-3.56,5.24c-39.69-10.34-71.66-33.23-84.87-43.76a3.35,3.35,0,0,0-5.39,3.22c5.95,33.22,41.57,154,249.43,234.23,37.38,14.42,76.48,28.68,118.05,39.18a3.36,3.36,0,0,1,2.54,3.25v114.12a3.35,3.35,0,0,1-3.36,3.36H657.22a3.35,3.35,0,0,0-3.35,3.52c.78,13.76,9.13,63.29,88.72,67.38a3.35,3.35,0,0,1,3.17,3.35v95.82a74.46,74.46,0,0,1-34.85,62.75l-142.66,88.9a7.67,7.67,0,0,0,4,14.17h856.44a6.67,6.67,0,0,0,3.53-12.34l-145.61-90.73a74.46,74.46,0,0,1-34.85-62.75v-95.94a3.37,3.37,0,0,1,3.06-3.34c66.48-5.88,80-51,84-66.61a3.36,3.36,0,0,0-3.26-4.18h-80.47a3.36,3.36,0,0,1-3.36-3.36V1004.3a3.37,3.37,0,0,1,2.52-3.25A832.82,832.82,0,0,0,1365.54,964Z" transform="translate(-375.69 -541.86)"/><path class="cls-2" d="M1590.66,763c-4.34,2.35-47.74,24.64-162.91,44-.14,0-.2-.18-.06-.22,65.67-22.63,102.82-53.14,92.55-92a.12.12,0,0,0-.23,0c-.9,6.58-17.22,54.41-300.24,61.47a.12.12,0,0,1,0-.23c3.54-.84,7.09-1.63,10.63-2.53,21.55-5.47,36-10,37.25-12.33a.11.11,0,0,0-.08-.16c-158.89-42.18-263.66-183.56-268.86-190a.1.1,0,0,0-.17,0c-4.67,6.34-110.06,147.8-268.93,190a.12.12,0,0,0-.09.16c1.26,2.35,15.71,6.86,37.32,12.33,3.49.9,7.08,1.69,10.58,2.53a.12.12,0,0,1,0,.23c-283.62-7.08-299.18-55.11-300-61.52,0-.12-.19-.13-.23,0-14.51,47.95,54.86,84.17,164,108a.12.12,0,0,1,0,.23c-180.87-20-229.19-55.41-234.46-59.7-.09-.08-.23,0-.16.15,94.67,161.33,323.25,244,558.14,250.28a.11.11,0,0,1,.1.15c-5.47,13.85-10.48,37.31,3.58,59.86a.1.1,0,0,1,0,.15c-8.19,5-15.58,13.08-16.51,25.88a.11.11,0,0,0,.18.1,71,71,0,0,1,81.12,0,.12.12,0,0,0,.18-.1c-.09-13.13-7.68-21.27-16.27-26.29a.11.11,0,0,1,0-.15c13.79-22.35,8.85-45.54,3.38-59.39a.11.11,0,0,1,.1-.15c238-5.93,472.28-90.15,570.45-250.56A.11.11,0,0,0,1590.66,763ZM999.44,1066.82a63.37,63.37,0,0,0-7-1.18h0s-2.85.34-6.88,1.25a.11.11,0,0,1-.12-.05c-11.72-16-8.63-33.63-4.62-44.66a12.37,12.37,0,0,1,11.66-8.13h0a12.39,12.39,0,0,1,11.62,8.19c4,11,7,28.67-4.53,44.53A.11.11,0,0,1,999.44,1066.82ZM777.08,1190c-4.2.13-8.27.13-12.08.13a.11.11,0,0,0-.11.11v103.92a93.11,93.11,0,0,1-43.87,79l-98.38,61.31a3.47,3.47,0,0,0,1.83,6.41h746.59a4.05,4.05,0,0,0,2.15-7.49l-96.65-60.23a93.11,93.11,0,0,1-43.87-79V1190.26a.11.11,0,0,0-.11-.11c-3.75,0-7.62,0-11.68-.13h-75.43a.11.11,0,0,0-.11.11v155.55a.11.11,0,0,1-.12.11H1121a.11.11,0,0,1-.12-.11V1176.94a.11.11,0,0,1,.12-.11h99.74c77.46,2.38,89.12-26.5,90.71-32.53a.86.86,0,0,0-.86-1.06H1232.8a.12.12,0,0,1-.11-.12V1012.05a.11.11,0,0,0-.14-.11c-28.42,6.8-57.56,12.29-87.09,16.52a.11.11,0,0,0-.1.11v114.55a.12.12,0,0,1-.12.12H1121a.12.12,0,0,1-.12-.12V1031.85a.12.12,0,0,0-.13-.12c-7.87,1-15.81,1.84-23.75,2.56a.12.12,0,0,0-.1.12v108.71a.13.13,0,0,1-.12.12H1071.1a.11.11,0,0,0-.11.14,81.06,81.06,0,0,1,2.87,30.8c-.06.82-.18,1.7-.25,2.53a.11.11,0,0,0,.11.12h23a.12.12,0,0,1,.12.11v168.74a.12.12,0,0,1-.12.11h-196a.11.11,0,0,1-.11-.11V1176.94a.11.11,0,0,1,.11-.11h10.36a.12.12,0,0,0,.12-.13c-.07-.88-.19-1.7-.26-2.52-.19-2.72-.33-5.37-.33-8a79.69,79.69,0,0,1,3.27-22.85.11.11,0,0,0-.11-.14H900.77a.12.12,0,0,1-.11-.12V1035.4a.11.11,0,0,0-.11-.11c-7.94-.66-15.81-1.45-23.69-2.3a.11.11,0,0,0-.12.11v110a.12.12,0,0,1-.12.12H852.34a.12.12,0,0,1-.12-.12V1030a.1.1,0,0,0-.1-.11q-44.4-6-87.09-15.79a.11.11,0,0,0-.14.11v128.88a.12.12,0,0,1-.11.12H686a.11.11,0,0,0-.11.13c.39,2.37,7.46,36.08,91,33.46h99.74a.11.11,0,0,1,.12.11v168.74a.11.11,0,0,1-.12.11H852.34a.11.11,0,0,1-.12-.11V1190.13a.11.11,0,0,0-.11-.11Zm482.23,210.82c-171.49,8.19-343.57,8.13-515,0a.12.12,0,0,1,0-.23c171.43-8.13,343.51-8.19,515,0A.12.12,0,0,1,1259.31,1400.84ZM1060,1178.78a281.44,281.44,0,0,0-2.31,46.48,15.77,15.77,0,0,1-6.2,13.25c-9.63,7.32-28,17-58,17h-2.12c-30,0-48.38-9.71-58-17a15.81,15.81,0,0,1-6.19-13.21,281.64,281.64,0,0,0-2.31-46.49q-.37-3-.64-5.85c-.21-2.25-.33-4.48-.33-6.7a68.57,68.57,0,1,1,136.81,6.7Q1060.43,1175.79,1060,1178.78Zm-136,73.23c.44-2.06.89-4.43,1.3-7.12a.12.12,0,0,1,.19-.08c10.54,8.59,31.4,20.56,65.75,20.56h2.25c34.42,0,55.3-12,65.84-20.58a.11.11,0,0,1,.18.08c.42,2.7.87,5.07,1.31,7.14a20.15,20.15,0,0,1-7.91,20.65c-10.84,7.78-30.25,17.19-60.5,17-30.26.22-49.66-9.19-60.5-17A20.15,20.15,0,0,1,924.05,1252Z" transform="translate(-375.69 -541.86)"/><path class="cls-1" d="M1119.77,852.26c0,18.48-15.38,54.76-36.81,65.31-13.4,6.59-60.65,27.64-100.36-11.9-12.69-12.63-46-20.25-54.15,13.79-5.48,22.87,38,58.29,108.64,44.76a116,116,0,0,0,13.05-2.93,120.73,120.73,0,0,1-50.58,11c-61.47,0-112.23-45.67-119.95-104.79a122.61,122.61,0,0,1,0-31.41,120,120,0,0,1,119-103.9C1065,732.21,1119.77,786.19,1119.77,852.26Z" transform="translate(-375.69 -541.86)"/><path class="cls-2" d="M923.92,927" transform="translate(-375.69 -541.86)"/><path class="cls-2" d="M920.73,924" transform="translate(-375.69 -541.86)"/><path class="cls-2" d="M964.82,860.14l-.06-.71c0-.53-.07-.94-.1-1.2a37.83,37.83,0,0,0-37.59-33.12,40.59,40.59,0,0,0-20.39,5.27,27,27,0,0,0-13.32,23.21v.09A98.16,98.16,0,0,0,923,924c-6-23.29,14.13-36.16,26.1-39.53C959.49,881.57,965.75,870.91,964.82,860.14Z" transform="translate(-375.69 -541.86)"/><path class="cls-2" d="M1106.7,849.86c0,1.95,0,3.9-.16,5.83a67.17,67.17,0,0,1-66.74,59.55l-2.13,0c-46.91-1.65-59.22-33.4-61.3-59.74,0-.69-.1-1.21-.14-1.55a46.5,46.5,0,0,0-79.77-26.24c10.34-47,52.95-82.31,103.93-82.31C1059.11,745.37,1106.7,792.15,1106.7,849.86Z" transform="translate(-375.69 -541.86)"/></svg>